# This file uses centimeters as units for non-parametric coordinates.

mtllib crystalDebri_1.mtl
g default
v 0.061674 -0.392848 0.032524
v 0.232962 0.174905 -0.464233
v 0.072022 -0.112703 -0.464222
v 0.084252 -0.382445 -0.248777
v 0.307513 0.065655 0.257705
v 0.159251 -0.047364 -0.464235
v 0.120265 -0.383385 -0.014650
v 0.140221 -0.105630 -0.464379
v -0.228424 0.042018 0.418056
v -0.261725 -0.488952 0.257027
v 0.373424 0.111340 0.194155
v 0.229483 0.037700 0.313494
v -0.407544 -0.179713 -0.443956
v 0.066585 0.291873 0.170878
v 0.030285 0.585788 -0.044057
v -0.198269 0.134347 -0.461539
v -0.326706 0.196004 0.244797
v -0.286879 0.250667 -0.098703
v -0.118569 0.407944 -0.468659
v 0.111587 0.045977 0.427576
v -0.069107 -0.536191 -0.001756
v 0.268770 0.029311 -0.464219
v 0.027062 0.445905 -0.383787
v -0.330881 -0.340809 0.264624
v -0.071945 -0.087511 0.468659
v -0.225809 0.438929 -0.313372
v -0.058647 -0.402450 -0.243306
v -0.331595 0.082675 0.095808
v 0.470618 0.174246 -0.322798
v -0.439157 -0.047652 -0.333182
v -0.273320 0.477443 0.073699
v -0.242289 0.573897 -0.004906
v -0.411306 0.092001 -0.113668
v -0.099076 0.245275 -0.464143
v -0.079329 0.174320 0.408575
v -0.470618 -0.066677 -0.268470
v -0.030179 0.595231 -0.109124
v -0.183504 -0.595231 -0.099139
v -0.326328 0.196915 0.242703
vn -0.954451 0.075044 0.288775
vn -0.954451 0.075044 0.288775
vn -0.954451 0.075044 0.288775
vn 0.941403 -0.304183 -0.145713
vn 0.941403 -0.304183 -0.145713
vn 0.941403 -0.304183 -0.145713
vn -0.000208 0.000077 -1.000000
vn -0.000208 0.000077 -1.000000
vn -0.000208 0.000077 -1.000000
vn 0.062791 -0.622869 -0.779802
vn 0.062791 -0.622869 -0.779802
vn 0.062791 -0.622869 -0.779802
vn 0.492460 0.848028 0.195783
vn 0.492460 0.848028 0.195783
vn 0.492460 0.848028 0.195783
vn -0.466446 -0.229795 0.854180
vn -0.466446 -0.229795 0.854179
vn -0.466446 -0.229795 0.854179
vn 0.560281 -0.594657 0.576601
vn 0.560281 -0.594657 0.576601
vn 0.560281 -0.594657 0.576601
vn 0.054079 -0.620238 -0.782548
vn 0.054079 -0.620238 -0.782548
vn 0.054079 -0.620238 -0.782548
vn -0.002656 0.003347 -0.999991
vn -0.002656 0.003347 -0.999991
vn -0.002656 0.003347 -0.999991
vn 0.573491 -0.819145 0.010461
vn 0.573491 -0.819145 0.010461
vn 0.573491 -0.819145 0.010461
vn 0.139414 -0.989908 -0.025419
vn 0.139414 -0.989908 -0.025419
vn 0.139414 -0.989908 -0.025419
vn 0.941240 -0.304551 -0.146002
vn 0.941240 -0.304551 -0.146002
vn 0.941240 -0.304551 -0.146002
vn 0.056945 -0.620620 -0.782041
vn 0.056945 -0.620620 -0.782041
vn 0.056945 -0.620620 -0.782041
vn 0.939985 -0.306635 -0.149680
vn 0.939985 -0.306635 -0.149679
vn 0.939985 -0.306635 -0.149679
vn 0.088767 0.595076 0.798752
vn 0.088767 0.595076 0.798752
vn 0.088767 0.595076 0.798752
vn -0.674948 0.658349 -0.333200
vn -0.674948 0.658349 -0.333200
vn -0.674948 0.658349 -0.333200
vn -0.864971 -0.500168 -0.040717
vn -0.864971 -0.500168 -0.040717
vn -0.864971 -0.500168 -0.040717
vn 0.574386 -0.577423 0.580227
vn 0.574386 -0.577423 0.580227
vn 0.574386 -0.577423 0.580227
vn 0.575251 -0.817931 0.008624
vn 0.575251 -0.817931 0.008624
vn 0.575251 -0.817931 0.008624
vn 0.600386 -0.582619 0.547806
vn 0.600386 -0.582619 0.547806
vn 0.600386 -0.582619 0.547806
vn 0.027162 0.502336 0.864246
vn 0.027162 0.502336 0.864246
vn 0.027162 0.502336 0.864246
vn 0.338417 0.561825 0.754868
vn 0.338417 0.561825 0.754868
vn 0.338417 0.561825 0.754868
vn 0.053665 -0.620631 -0.782264
vn 0.053665 -0.620631 -0.782264
vn 0.053665 -0.620631 -0.782264
vn -0.272008 -0.287624 -0.918305
vn -0.272008 -0.287624 -0.918305
vn -0.272008 -0.287624 -0.918305
vn 0.485270 0.850785 0.201688
vn 0.485270 0.850785 0.201688
vn 0.485270 0.850785 0.201688
vn 0.300638 0.605936 0.736517
vn 0.300638 0.605936 0.736517
vn 0.300638 0.605936 0.736517
vn 0.994950 0.089138 -0.046142
vn 0.994950 0.089138 -0.046142
vn 0.994950 0.089138 -0.046142
vn -0.282935 0.873065 -0.397121
vn -0.282935 0.873065 -0.397121
vn -0.282935 0.873065 -0.397121
vn 0.044157 0.881531 -0.470058
vn 0.044157 0.881531 -0.470058
vn 0.044157 0.881531 -0.470057
vn 0.009164 -0.005167 -0.999945
vn 0.009164 -0.005167 -0.999945
vn 0.009164 -0.005167 -0.999945
vn -0.426931 0.533445 0.730182
vn -0.426931 0.533445 0.730182
vn -0.426931 0.533445 0.730182
vn -0.940271 0.124691 0.316769
vn -0.940271 0.124691 0.316769
vn -0.940271 0.124691 0.316769
vn -0.919411 -0.297911 0.256772
vn -0.919412 -0.297911 0.256772
vn -0.919412 -0.297911 0.256772
vn -0.982296 0.165623 -0.087536
vn -0.973022 0.217026 -0.078281
vn -0.983239 0.159318 -0.088649
vn -0.983239 0.159318 -0.088649
vn -0.077834 -0.036983 -0.996280
vn -0.077834 -0.036983 -0.996280
vn -0.077834 -0.036983 -0.996280
vn -0.868283 -0.223389 -0.442924
vn -0.868283 -0.223389 -0.442924
vn -0.868283 -0.223389 -0.442924
vn 0.472453 0.772037 0.425144
vn 0.472453 0.772037 0.425144
vn 0.472453 0.772037 0.425144
vn 0.549133 -0.596214 0.585646
vn 0.549133 -0.596214 0.585646
vn 0.549133 -0.596214 0.585646
vn 0.558402 -0.636653 0.531847
vn 0.558402 -0.636653 0.531847
vn 0.558402 -0.636653 0.531847
vn 0.000177 -0.000050 -1.000000
vn 0.000177 -0.000050 -1.000000
vn 0.000177 -0.000050 -1.000000
vn 0.430989 0.541685 -0.721682
vn 0.430989 0.541685 -0.721682
vn 0.430989 0.541685 -0.721682
vn 0.337855 0.494431 -0.800870
vn 0.337855 0.494431 -0.800870
vn 0.337855 0.494431 -0.800870
vn -0.906092 -0.423077 0.001845
vn -0.906092 -0.423077 0.001845
vn -0.906092 -0.423077 0.001845
vn -0.417177 -0.239699 0.876646
vn -0.417177 -0.239699 0.876646
vn -0.417177 -0.239699 0.876646
vn -0.132100 0.218161 0.966931
vn -0.132100 0.218161 0.966931
vn -0.132100 0.218161 0.966931
vn 0.550708 -0.569305 0.610420
vn 0.550708 -0.569305 0.610420
vn 0.550708 -0.569305 0.610420
vn -0.827976 -0.114456 -0.548959
vn -0.827976 -0.114456 -0.548959
vn -0.827976 -0.114456 -0.548959
vn -0.300039 0.874254 -0.381649
vn -0.300039 0.874254 -0.381649
vn -0.300039 0.874254 -0.381649
vn 0.739164 -0.602291 -0.301466
vn 0.739164 -0.602291 -0.301466
vn 0.739164 -0.602291 -0.301466
vn 0.137640 -0.990152 -0.025570
vn 0.137640 -0.990152 -0.025570
vn 0.137640 -0.990152 -0.025570
vn -0.923182 0.140986 0.357573
vn -0.923182 0.140986 0.357573
vn -0.923182 0.140986 0.357573
vn 0.578592 -0.815556 0.010007
vn 0.578592 -0.815556 0.010007
vn 0.578592 -0.815556 0.010007
vn 0.507668 0.124778 -0.852469
vn 0.507668 0.124778 -0.852469
vn 0.507668 0.124778 -0.852469
vn -0.119518 0.621103 -0.774562
vn -0.119518 0.621103 -0.774562
vn -0.119518 0.621103 -0.774562
vn -0.881097 -0.472778 -0.012159
vn -0.881097 -0.472778 -0.012159
vn -0.881098 -0.472778 -0.012159
vn -0.985517 0.106933 -0.131609
vn -0.985517 0.106933 -0.131609
vn -0.985517 0.106933 -0.131609
vn -0.985518 0.106933 -0.131609
vn -0.451084 0.524537 0.722069
vn -0.451085 0.524537 0.722069
vn -0.451085 0.524537 0.722069
vn 0.106493 0.607337 0.787275
vn 0.106493 0.607337 0.787275
vn 0.106493 0.607337 0.787275
vn -0.970124 0.198931 -0.138873
vn -0.970124 0.198931 -0.138873
vn -0.970124 0.198931 -0.138873
vn -0.761067 0.567136 0.314856
vn -0.761067 0.567136 0.314856
vn -0.761067 0.567136 0.314856
vn -0.715363 0.595475 -0.365604
vn -0.715363 0.595475 -0.365604
vn -0.715362 0.595475 -0.365604
vn -0.017267 -0.008033 -0.999819
vn -0.017267 -0.008033 -0.999819
vn -0.017267 -0.008033 -0.999819
vn -0.697532 0.615110 -0.367544
vn -0.697532 0.615110 -0.367544
vn -0.697532 0.615110 -0.367544
vn 0.054281 0.224786 0.972895
vn 0.054281 0.224786 0.972895
vn 0.054281 0.224786 0.972895
vn 0.472829 0.767454 0.432951
vn 0.472829 0.767454 0.432951
vn 0.472829 0.767454 0.432951
vn -0.811141 0.534595 -0.237189
vn -0.811141 0.534595 -0.237189
vn -0.811141 0.534595 -0.237189
vn -0.906258 0.122446 -0.404603
vn -0.906258 0.122446 -0.404603
vn -0.906258 0.122446 -0.404603
vn 0.487743 0.805599 -0.336330
vn 0.487743 0.805599 -0.336330
vn 0.487743 0.805599 -0.336330
vn -0.019831 0.986654 0.161617
vn -0.019831 0.986654 0.161617
vn -0.019831 0.986654 0.161617
vn 0.646551 -0.678921 -0.347905
vn 0.646551 -0.678921 -0.347905
vn 0.646551 -0.678921 -0.347905
vn 0.204209 -0.924862 0.320825
vn 0.204209 -0.924862 0.320825
vn 0.204209 -0.924862 0.320825
vn -0.970691 0.227905 -0.076279
s off
g crystalDebri_1
usemtl blinn1SG
f 36//1 24//2 33//3
f 7//4 6//5 5//6
f 6//7 3//8 2//9
f 8//10 27//11 3//12
f 23//13 11//14 29//15
f 25//16 9//17 10//18
f 12//19 1//20 7//21
f 13//22 27//23 38//24
f 6//25 8//26 3//27
f 5//28 6//29 22//30
f 7//31 1//32 4//33
f 7//34 4//35 6//36
f 8//37 4//38 27//39
f 6//40 4//41 8//42
f 15//43 32//44 14//45
f 16//46 30//47 33//48
f 13//49 38//50 10//51
f 25//52 10//53 1//54
f 29//55 11//56 5//57
f 5//58 12//59 7//60
f 12//61 14//62 31//63
f 12//64 5//65 11//66
f 3//67 27//68 13//69
f 3//70 30//71 16//72
f 23//73 14//74 11//75
f 14//76 12//77 11//78
f 14//79 23//80 15//81
f 37//82 26//83 32//84
f 23//85 19//86 37//87
f 19//88 2//89 3//90
f 31//91 9//92 35//93
f 28//94 24//95 9//96
f 17//97 28//98 9//99
s 1
f 39//100 18//101 28//102 17//103
s off
f 19//104 3//105 34//106
f 26//107 34//108 18//109
f 35//110 12//111 31//112
f 25//113 1//114 12//115
f 1//116 10//117 21//118
f 22//119 6//120 2//121
f 29//122 2//123 23//124
f 23//125 2//126 19//127
f 24//128 13//129 10//130
f 24//131 10//132 9//133
f 9//134 25//135 35//136
f 20//137 25//138 12//139
f 19//140 34//141 26//142
f 37//143 19//144 26//145
f 27//146 1//147 21//148
f 4//149 1//150 27//151
f 33//152 24//153 28//154
f 29//155 5//156 22//157
f 2//158 29//159 22//160
f 30//161 3//162 13//163
f 36//164 13//165 24//166
f 17//167 31//168 26//169 39//170
f 31//171 17//172 9//173
f 32//174 31//175 14//176
f 32//177 26//178 31//179
f 28//180 18//181 33//182
f 16//183 33//184 18//185
f 3//186 16//187 34//188
f 34//189 16//190 18//191
f 35//192 25//193 20//194
f 12//195 35//196 20//197
f 33//198 30//199 36//200
f 30//201 13//202 36//203
f 23//204 37//205 15//206
f 15//207 37//208 32//209
f 27//210 21//211 38//212
f 38//213 21//214 10//215
s 1
f 26//216 18//101 39//100
